<svg t="1707370422982" class="icon" viewBox="0 0 1024 1024" version="1.1" xmlns="http://www.w3.org/2000/svg" p-id="716" width="200" height="200"><path d="M512.246959 512.228469m-511.77153 0a511.771531 511.771531 0 1 0 1023.543061 0 511.771531 511.771531 0 1 0-1023.543061 0Z" fill="#00B259" p-id="717"></path><path d="M451.931029 421.754574l150.789826 150.789826 75.394913-75.394913a106.612976 106.612976 0 0 0-150.789826-150.789826L451.931029 421.772851zM602.720855 512.228469L512.246959 421.791129l45.236948-45.255225a63.971441 63.971441 0 0 1 90.473896 90.473895L602.739132 512.228469z" fill="#80D8AC" p-id="718"></path><path d="M482.088994 451.912539L512.246959 482.070504 482.088994 512.228469l-30.157965-30.157965z" fill="#80D8AC" p-id="719"></path><path d="M542.404924 512.228469l30.157966 30.157966-30.157966 30.157965L512.246959 542.386435zM361.457133 632.878608l30.157965 30.157965-105.571155 105.552878-30.157966-30.157965z" fill="#FFFFFF" p-id="720"></path><path d="M738.449976 255.885765l30.157965 30.157965-105.552878 105.534601-30.157966-30.157965z" fill="#76D4A5" p-id="721"></path><path d="M572.56289 602.702365L421.773064 451.912539l-75.413191 75.413191a106.612976 106.612976 0 0 0 150.789826 150.789826l75.394913-75.413191zM421.718231 512.228469l90.473895 90.473896-45.21867 45.255225a63.971441 63.971441 0 1 1-90.473895-90.473895L421.736508 512.228469z" fill="#FFFFFF" p-id="722"></path></svg>